# This file uses centimeters as units for non-parametric coordinates.

mtllib gun.mtl
g default
v -0.500000 -1.500000 0.500000
v 0.500000 -1.500000 0.500000
v -0.500000 -0.500000 0.500000
v 0.500000 -0.500000 0.500000
v -0.500000 0.500000 0.500000
v 0.500000 0.500000 0.500000
v -0.500000 1.500000 0.500000
v 0.500000 1.500000 0.500000
v -0.500000 1.500000 -0.500000
v 0.500000 1.500000 -0.500000
v -0.500000 0.500000 -0.500000
v 0.500000 0.500000 -0.500000
v -0.500000 -0.500000 -0.500000
v 0.500000 -0.500000 -0.500000
v -0.500000 -1.500000 -0.500000
v 0.500000 -1.500000 -0.500000
v -0.500000 1.500000 -1.500000
v -0.500000 1.500000 -2.500000
v -0.500000 1.500000 -3.500000
v 0.500000 1.500000 -1.500000
v 0.500000 1.500000 -2.500000
v 0.500000 1.500000 -3.500000
v 0.500000 0.500000 -1.500000
v 0.500000 0.500000 -2.500000
v 0.500000 0.500000 -3.500000
v -0.500000 0.500000 -1.500000
v -0.500000 0.500000 -2.500000
v -0.500000 0.500000 -3.500000
vt 0.375000 0.000000
vt 0.625000 0.000000
vt 0.375000 0.083333
vt 0.625000 0.083333
vt 0.375000 0.166667
vt 0.625000 0.166667
vt 0.375000 0.250000
vt 0.625000 0.250000
vt 0.375000 0.500000
vt 0.625000 0.500000
vt 0.375000 0.583333
vt 0.625000 0.583333
vt 0.375000 0.666667
vt 0.625000 0.666667
vt 0.375000 0.750000
vt 0.625000 0.750000
vt 0.375000 1.000000
vt 0.625000 1.000000
vt 0.875000 0.000000
vt 0.875000 0.083333
vt 0.875000 0.166667
vt 0.875000 0.250000
vt 0.125000 0.000000
vt 0.125000 0.083333
vt 0.125000 0.166667
vt 0.125000 0.250000
vt 0.375000 0.500000
vt 0.375000 0.500000
vt 0.375000 0.500000
vt 0.625000 0.500000
vt 0.625000 0.500000
vt 0.625000 0.500000
vt 0.625000 0.583333
vt 0.625000 0.583333
vt 0.625000 0.583333
vt 0.375000 0.583333
vt 0.375000 0.583333
vt 0.375000 0.583333
vn 0.000000 0.000000 1.000000
vn 0.000000 0.000000 1.000000
vn 0.000000 0.000000 1.000000
vn 0.000000 0.000000 1.000000
vn 0.000000 0.000000 1.000000
vn 0.000000 0.000000 1.000000
vn 0.000000 0.000000 1.000000
vn 0.000000 0.000000 1.000000
vn 0.000000 1.000000 0.000000
vn 0.000000 1.000000 0.000000
vn 0.000000 1.000000 0.000000
vn 0.000000 1.000000 0.000000
vn 0.000000 0.000000 -1.000000
vn 0.000000 0.000000 -1.000000
vn 0.000000 0.000000 -1.000000
vn 0.000000 0.000000 -1.000000
vn 0.000000 0.000000 -1.000000
vn 0.000000 0.000000 -1.000000
vn 0.000000 0.000000 -1.000000
vn 0.000000 0.000000 -1.000000
vn 0.000000 0.000000 -1.000000
vn 0.000000 0.000000 -1.000000
vn 0.000000 -1.000000 0.000000
vn 0.000000 -1.000000 0.000000
vn 0.000000 -1.000000 0.000000
vn 0.000000 -1.000000 0.000000
vn 1.000000 0.000000 0.000000
vn 1.000000 0.000000 0.000000
vn 1.000000 0.000000 0.000000
vn 1.000000 0.000000 0.000000
vn 1.000000 0.000000 0.000000
vn 1.000000 0.000000 0.000000
vn 1.000000 0.000000 0.000000
vn 1.000000 0.000000 0.000000
vn -1.000000 0.000000 0.000000
vn -1.000000 0.000000 0.000000
vn -1.000000 0.000000 0.000000
vn -1.000000 0.000000 0.000000
vn -1.000000 0.000000 0.000000
vn -1.000000 0.000000 0.000000
vn -1.000000 0.000000 0.000000
vn -1.000000 0.000000 0.000000
vn 0.000000 1.000000 0.000000
vn 0.000000 1.000000 0.000000
vn 0.000000 1.000000 0.000000
vn 0.000000 1.000000 0.000000
vn 0.000000 1.000000 0.000000
vn 0.000000 1.000000 0.000000
vn 1.000000 0.000000 0.000000
vn 1.000000 0.000000 0.000000
vn 1.000000 0.000000 0.000000
vn 1.000000 0.000000 0.000000
vn 1.000000 0.000000 0.000000
vn 1.000000 0.000000 0.000000
vn 0.000000 -1.000000 0.000000
vn 0.000000 -1.000000 0.000000
vn 0.000000 -1.000000 0.000000
vn 0.000000 -1.000000 0.000000
vn 0.000000 -1.000000 0.000000
vn 0.000000 -1.000000 0.000000
vn 0.000000 -1.000000 0.000000
vn 0.000000 -1.000000 0.000000
vn -1.000000 0.000000 0.000000
vn -1.000000 0.000000 0.000000
vn -1.000000 0.000000 0.000000
vn -1.000000 0.000000 0.000000
vn -1.000000 0.000000 0.000000
vn -1.000000 0.000000 0.000000
s 1
g chasse gun
usemtl initialShadingGroup
f 1/1/1 2/2/2 4/4/3 3/3/4
f 3/3/4 4/4/3 6/6/5 5/5/6
f 5/5/6 6/6/5 8/8/7 7/7/8
s 2
f 7/7/9 8/8/10 10/10/11 9/9/12
s off
f 19/29/13 22/32/14 25/35/15 28/38/16
s 3
f 11/11/17 12/12/18 14/14/19 13/13/20
f 13/13/20 14/14/19 16/16/21 15/15/22
s off
f 15/15/23 16/16/24 2/18/25 1/17/26
s 4
f 2/2/27 16/19/28 14/20/29 4/4/30
f 4/4/30 14/20/29 12/21/31 6/6/32
f 6/6/32 12/21/31 10/22/33 8/8/34
s 5
f 15/23/35 1/1/36 3/3/37 13/24/38
f 13/24/38 3/3/37 5/5/39 11/25/40
f 11/25/40 5/5/39 7/7/41 9/26/42
s 2
f 9/9/12 10/10/11 20/30/43 17/27/44
f 17/27/44 20/30/43 21/31/45 18/28/46
f 18/28/46 21/31/45 22/32/47 19/29/48
s 4
f 10/10/33 12/12/31 23/33/49 20/30/50
f 20/30/50 23/33/49 24/34/51 21/31/52
f 21/31/52 24/34/51 25/35/53 22/32/54
s 6
f 12/12/55 11/11/56 26/36/57 23/33/58
f 23/33/58 26/36/57 27/37/59 24/34/60
f 24/34/60 27/37/59 28/38/61 25/35/62
s 5
f 11/11/40 9/9/42 17/27/63 26/36/64
f 26/36/64 17/27/63 18/28/65 27/37/66
f 27/37/66 18/28/65 19/29/67 28/38/68
g default
v -0.050000 0.100000 -0.850000
v 0.050000 0.100000 -0.850000
v -0.050000 0.500000 -0.850000
v 0.050000 0.500000 -0.850000
v -0.050000 0.500000 -0.950000
v 0.050000 0.500000 -0.950000
v -0.050000 0.100000 -0.950000
v 0.050000 0.100000 -0.950000
v -0.050000 -0.087157 -1.036019
v 0.050000 -0.087157 -1.036019
v 0.050000 -0.087157 -0.936019
v -0.050000 -0.087157 -0.936019
vt 0.375000 0.000000
vt 0.625000 0.000000
vt 0.375000 0.250000
vt 0.625000 0.250000
vt 0.375000 0.500000
vt 0.625000 0.500000
vt 0.375000 0.750000
vt 0.625000 0.750000
vt 0.375000 1.000000
vt 0.625000 1.000000
vt 0.875000 0.000000
vt 0.875000 0.250000
vt 0.125000 0.000000
vt 0.125000 0.250000
vt 0.375000 0.750000
vt 0.625000 0.750000
vt 0.625000 1.000000
vt 0.375000 1.000000
vn 0.000000 -0.144953 0.989439
vn 0.000000 -0.144953 0.989439
vn 0.000000 0.000000 1.000000
vn 0.000000 0.000000 1.000000
vn 0.000000 1.000000 0.000000
vn 0.000000 1.000000 0.000000
vn 0.000000 1.000000 0.000000
vn 0.000000 1.000000 0.000000
vn 0.000000 0.000000 -1.000000
vn 0.000000 0.000000 -1.000000
vn 0.000000 0.144953 -0.989439
vn 0.000000 0.144953 -0.989439
vn 0.000000 -1.000000 0.000000
vn 0.000000 -1.000000 0.000000
vn 0.000000 -1.000000 0.000000
vn 0.000000 -1.000000 0.000000
vn 1.000000 0.000000 0.000000
vn 1.000000 0.000000 0.000000
vn 1.000000 0.000000 0.000000
vn 1.000000 0.000000 0.000000
vn -1.000000 0.000000 0.000000
vn -1.000000 0.000000 0.000000
vn -1.000000 0.000000 0.000000
vn -1.000000 0.000000 0.000000
vn 0.000000 0.417611 -0.908626
vn 0.000000 0.417611 -0.908626
vn 1.000000 0.000000 0.000000
vn 1.000000 0.000000 0.000000
vn 0.000000 -0.417610 0.908626
vn 0.000000 -0.417610 0.908626
vn -1.000000 0.000000 0.000000
vn -1.000000 0.000000 0.000000
s 1
g gun trigger
usemtl initialShadingGroup
f 29/39/69 30/40/70 32/42/71 31/41/72
s off
f 31/41/73 32/42/74 34/44/75 33/43/76
s 2
f 33/43/77 34/44/78 36/46/79 35/45/80
s off
f 37/53/81 38/54/82 39/55/83 40/56/84
s 3
f 30/40/85 36/49/86 34/50/87 32/42/88
s 4
f 35/51/89 29/39/90 31/41/91 33/52/92
s 2
f 35/45/80 36/46/79 38/54/93 37/53/94
s 3
f 36/46/86 30/48/85 39/55/95 38/54/96
s 1
f 30/48/70 29/47/69 40/56/97 39/55/98
s 4
f 29/47/90 35/45/89 37/53/99 40/56/100
g default
v -0.050000 -0.250000 -1.300393
v 0.050000 -0.250000 -1.300393
v -0.050000 -0.142857 -1.300393
v 0.050000 -0.142857 -1.300393
v -0.050000 -0.035714 -1.300393
v 0.050000 -0.035714 -1.300393
v -0.050000 0.071429 -1.300393
v 0.050000 0.071429 -1.300393
v -0.050000 0.178571 -1.300393
v 0.050000 0.178571 -1.300393
v -0.050000 0.285714 -1.300393
v 0.050000 0.285714 -1.300393
v -0.050000 0.392857 -1.300393
v 0.050000 0.392857 -1.300393
v -0.050000 0.500000 -1.300393
v 0.050000 0.500000 -1.300393
v -0.050000 0.500000 -1.400393
v 0.050000 0.500000 -1.400393
v -0.050000 0.392857 -1.400393
v 0.050000 0.392857 -1.400393
v -0.050000 0.285714 -1.400393
v 0.050000 0.285714 -1.400393
v -0.050000 0.178571 -1.400393
v 0.050000 0.178571 -1.400393
v -0.050000 0.071429 -1.400393
v 0.050000 0.071429 -1.400393
v -0.050000 -0.035714 -1.400393
v 0.050000 -0.035714 -1.400393
v -0.050000 -0.142857 -1.400393
v 0.050000 -0.142857 -1.400393
v -0.050000 -0.250000 -1.400393
v 0.050000 -0.250000 -1.400393
v -0.050000 -0.250000 -1.186107
v -0.050000 -0.250000 -1.071821
v -0.050000 -0.250000 -0.957535
v -0.050000 -0.250000 -0.843250
v -0.050000 -0.250000 -0.728964
v -0.050000 -0.250000 -0.614678
v -0.050000 -0.250000 -0.500393
v 0.050000 -0.250000 -1.186107
v 0.050000 -0.250000 -1.071821
v 0.050000 -0.250000 -0.957535
v 0.050000 -0.250000 -0.843250
v 0.050000 -0.250000 -0.728964
v 0.050000 -0.250000 -0.614678
v 0.050000 -0.250000 -0.500393
v 0.050000 -0.142857 -1.186107
v 0.050000 -0.142857 -1.071821
v 0.050000 -0.142857 -0.957535
v 0.050000 -0.142857 -0.843250
v 0.050000 -0.142857 -0.728964
v 0.050000 -0.142857 -0.614678
v 0.050000 -0.142857 -0.500393
v -0.050000 -0.142857 -1.186107
v -0.050000 -0.142857 -1.071821
v -0.050000 -0.142857 -0.957535
v -0.050000 -0.142857 -0.843250
v -0.050000 -0.142857 -0.728964
v -0.050000 -0.142857 -0.614678
v -0.050000 -0.142857 -0.500393
vt 0.375000 0.000000
vt 0.625000 0.000000
vt 0.375000 0.035714
vt 0.625000 0.035714
vt 0.375000 0.071429
vt 0.625000 0.071429
vt 0.375000 0.107143
vt 0.625000 0.107143
vt 0.375000 0.142857
vt 0.625000 0.142857
vt 0.375000 0.178571
vt 0.625000 0.178571
vt 0.375000 0.214286
vt 0.625000 0.214286
vt 0.375000 0.250000
vt 0.625000 0.250000
vt 0.375000 0.500000
vt 0.625000 0.500000
vt 0.375000 0.535714
vt 0.625000 0.535714
vt 0.375000 0.571429
vt 0.625000 0.571429
vt 0.375000 0.607143
vt 0.625000 0.607143
vt 0.375000 0.642857
vt 0.625000 0.642857
vt 0.375000 0.678571
vt 0.625000 0.678571
vt 0.375000 0.714286
vt 0.625000 0.714286
vt 0.375000 0.750000
vt 0.625000 0.750000
vt 0.375000 1.000000
vt 0.625000 1.000000
vt 0.875000 0.000000
vt 0.875000 0.035714
vt 0.875000 0.071429
vt 0.875000 0.107143
vt 0.875000 0.142857
vt 0.875000 0.178571
vt 0.875000 0.214286
vt 0.875000 0.250000
vt 0.125000 0.000000
vt 0.125000 0.035714
vt 0.125000 0.071429
vt 0.125000 0.107143
vt 0.125000 0.142857
vt 0.125000 0.178571
vt 0.125000 0.214286
vt 0.125000 0.250000
vt 0.375000 0.000000
vt 0.375000 0.000000
vt 0.375000 0.000000
vt 0.375000 0.000000
vt 0.375000 0.000000
vt 0.375000 0.000000
vt 0.375000 0.000000
vt 0.625000 0.000000
vt 0.625000 0.000000
vt 0.625000 0.000000
vt 0.625000 0.000000
vt 0.625000 0.000000
vt 0.625000 0.000000
vt 0.625000 0.000000
vt 0.625000 0.035714
vt 0.625000 0.035714
vt 0.625000 0.035714
vt 0.625000 0.035714
vt 0.625000 0.035714
vt 0.625000 0.035714
vt 0.625000 0.035714
vt 0.375000 0.035714
vt 0.375000 0.035714
vt 0.375000 0.035714
vt 0.375000 0.035714
vt 0.375000 0.035714
vt 0.375000 0.035714
vt 0.375000 0.035714
vn 0.000000 0.000000 1.000000
vn 0.000000 0.000000 1.000000
vn 0.000000 0.000000 1.000000
vn 0.000000 0.000000 1.000000
vn 0.000000 0.000000 1.000000
vn 0.000000 0.000000 1.000000
vn 0.000000 0.000000 1.000000
vn 0.000000 0.000000 1.000000
vn 0.000000 0.000000 1.000000
vn 0.000000 0.000000 1.000000
vn 0.000000 0.000000 1.000000
vn 0.000000 0.000000 1.000000
vn 0.000000 0.000000 1.000000
vn 0.000000 0.000000 1.000000
vn 0.000000 0.000000 1.000000
vn 0.000000 0.000000 1.000000
vn 0.000000 0.000000 1.000000
vn 0.000000 0.000000 1.000000
vn 0.000000 1.000000 0.000000
vn 0.000000 1.000000 0.000000
vn 0.000000 1.000000 0.000000
vn 0.000000 1.000000 0.000000
vn 0.000000 0.000000 -1.000000
vn 0.000000 0.000000 -1.000000
vn 0.000000 0.000000 -1.000000
vn 0.000000 0.000000 -1.000000
vn 0.000000 0.000000 -1.000000
vn 0.000000 0.000000 -1.000000
vn 0.000000 0.000000 -1.000000
vn 0.000000 0.000000 -1.000000
vn 0.000000 0.000000 -1.000000
vn 0.000000 0.000000 -1.000000
vn 0.000000 0.000000 -1.000000
vn 0.000000 0.000000 -1.000000
vn 0.000000 0.000000 -1.000000
vn 0.000000 0.000000 -1.000000
vn 0.000000 0.000000 -1.000000
vn 0.000000 0.000000 -1.000000
vn 0.000000 -1.000000 0.000000
vn 0.000000 -1.000000 0.000000
vn 0.000000 -1.000000 0.000000
vn 0.000000 -1.000000 0.000000
vn 1.000000 0.000000 0.000000
vn 1.000000 0.000000 0.000000
vn 1.000000 0.000000 0.000000
vn 1.000000 0.000000 0.000000
vn 1.000000 0.000000 0.000000
vn 1.000000 0.000000 0.000000
vn 1.000000 0.000000 0.000000
vn 1.000000 0.000000 0.000000
vn 1.000000 0.000000 0.000000
vn 1.000000 0.000000 0.000000
vn 1.000000 0.000000 0.000000
vn 1.000000 0.000000 0.000000
vn 1.000000 0.000000 0.000000
vn 1.000000 0.000000 0.000000
vn 1.000000 0.000000 0.000000
vn 1.000000 0.000000 0.000000
vn -1.000000 0.000000 0.000000
vn -1.000000 0.000000 0.000000
vn -1.000000 0.000000 0.000000
vn -1.000000 0.000000 0.000000
vn -1.000000 0.000000 0.000000
vn -1.000000 0.000000 0.000000
vn -1.000000 0.000000 0.000000
vn -1.000000 0.000000 0.000000
vn -1.000000 0.000000 0.000000
vn -1.000000 0.000000 0.000000
vn -1.000000 0.000000 0.000000
vn -1.000000 0.000000 0.000000
vn -1.000000 0.000000 0.000000
vn -1.000000 0.000000 0.000000
vn -1.000000 0.000000 0.000000
vn -1.000000 0.000000 0.000000
vn 0.000000 -1.000000 0.000000
vn 0.000000 -1.000000 0.000000
vn 0.000000 -1.000000 0.000000
vn 0.000000 -1.000000 0.000000
vn 0.000000 -1.000000 0.000000
vn 0.000000 -1.000000 0.000000
vn 0.000000 -1.000000 0.000000
vn 0.000000 -1.000000 0.000000
vn 0.000000 -1.000000 0.000000
vn 0.000000 -1.000000 0.000000
vn 0.000000 -1.000000 0.000000
vn 0.000000 -1.000000 0.000000
vn 0.000000 -1.000000 0.000000
vn 0.000000 -1.000000 0.000000
vn 1.000000 0.000000 0.000000
vn 1.000000 0.000000 0.000000
vn 1.000000 0.000000 0.000000
vn 1.000000 0.000000 0.000000
vn 1.000000 0.000000 0.000000
vn 1.000000 0.000000 0.000000
vn 1.000000 0.000000 0.000000
vn 1.000000 0.000000 0.000000
vn 1.000000 0.000000 0.000000
vn 1.000000 0.000000 0.000000
vn 1.000000 0.000000 0.000000
vn 1.000000 0.000000 0.000000
vn 1.000000 0.000000 0.000000
vn 1.000000 0.000000 0.000000
vn 0.000000 1.000000 0.000000
vn 0.000000 1.000000 0.000000
vn 0.000000 1.000000 0.000000
vn 0.000000 1.000000 0.000000
vn 0.000000 1.000000 0.000000
vn 0.000000 1.000000 0.000000
vn 0.000000 1.000000 0.000000
vn 0.000000 1.000000 0.000000
vn 0.000000 1.000000 0.000000
vn 0.000000 1.000000 0.000000
vn 0.000000 1.000000 0.000000
vn 0.000000 1.000000 0.000000
vn 0.000000 1.000000 0.000000
vn 0.000000 1.000000 0.000000
vn 0.000000 1.000000 0.000000
vn 0.000000 1.000000 0.000000
vn -1.000000 0.000000 0.000000
vn -1.000000 0.000000 0.000000
vn -1.000000 0.000000 0.000000
vn -1.000000 0.000000 0.000000
vn -1.000000 0.000000 0.000000
vn -1.000000 0.000000 0.000000
vn -1.000000 0.000000 0.000000
vn -1.000000 0.000000 0.000000
vn -1.000000 0.000000 0.000000
vn -1.000000 0.000000 0.000000
vn -1.000000 0.000000 0.000000
vn -1.000000 0.000000 0.000000
vn -1.000000 0.000000 0.000000
vn -1.000000 0.000000 0.000000
s off
g gun trigger_guard
usemtl initialShadingGroup
f 79/113/101 86/120/102 93/127/103 100/134/104
s 1
f 43/59/105 44/60/106 46/62/107 45/61/108
f 45/61/108 46/62/107 48/64/109 47/63/110
f 47/63/110 48/64/109 50/66/111 49/65/112
f 49/65/112 50/66/111 52/68/113 51/67/114
f 51/67/114 52/68/113 54/70/115 53/69/116
f 53/69/116 54/70/115 56/72/117 55/71/118
s off
f 55/71/119 56/72/120 58/74/121 57/73/122
s 2
f 57/73/123 58/74/124 60/76/125 59/75/126
f 59/75/126 60/76/125 62/78/127 61/77/128
f 61/77/128 62/78/127 64/80/129 63/79/130
f 63/79/130 64/80/129 66/82/131 65/81/132
f 65/81/132 66/82/131 68/84/133 67/83/134
f 67/83/134 68/84/133 70/86/135 69/85/136
f 69/85/136 70/86/135 72/88/137 71/87/138
s 3
f 71/87/139 72/88/140 42/90/141 41/89/142
s 4
f 42/58/143 72/91/144 70/92/145 44/60/146
f 44/60/146 70/92/145 68/93/147 46/62/148
f 46/62/148 68/93/147 66/94/149 48/64/150
f 48/64/150 66/94/149 64/95/151 50/66/152
f 50/66/152 64/95/151 62/96/153 52/68/154
f 52/68/154 62/96/153 60/97/155 54/70/156
f 54/70/156 60/97/155 58/98/157 56/72/158
s 5
f 71/99/159 41/57/160 43/59/161 69/100/162
f 69/100/162 43/59/161 45/61/163 67/101/164
f 67/101/164 45/61/163 47/63/165 65/102/166
f 65/102/166 47/63/165 49/65/167 63/103/168
f 63/103/168 49/65/167 51/67/169 61/104/170
f 61/104/170 51/67/169 53/69/171 59/105/172
f 59/105/172 53/69/171 55/71/173 57/106/174
s 3
f 41/57/142 42/58/141 80/114/175 73/107/176
f 73/107/176 80/114/175 81/115/177 74/108/178
f 74/108/178 81/115/177 82/116/179 75/109/180
f 75/109/180 82/116/179 83/117/181 76/110/182
f 76/110/182 83/117/181 84/118/183 77/111/184
f 77/111/184 84/118/183 85/119/185 78/112/186
f 78/112/186 85/119/185 86/120/187 79/113/188
s 4
f 42/58/143 44/60/146 87/121/189 80/114/190
f 80/114/190 87/121/189 88/122/191 81/115/192
f 81/115/192 88/122/191 89/123/193 82/116/194
f 82/116/194 89/123/193 90/124/195 83/117/196
f 83/117/196 90/124/195 91/125/197 84/118/198
f 84/118/198 91/125/197 92/126/199 85/119/200
f 85/119/200 92/126/199 93/127/201 86/120/202
s 6
f 44/60/203 43/59/204 94/128/205 87/121/206
f 87/121/206 94/128/205 95/129/207 88/122/208
f 88/122/208 95/129/207 96/130/209 89/123/210
f 89/123/210 96/130/209 97/131/211 90/124/212
f 90/124/212 97/131/211 98/132/213 91/125/214
f 91/125/214 98/132/213 99/133/215 92/126/216
f 92/126/216 99/133/215 100/134/217 93/127/218
s 5
f 43/59/161 41/57/160 73/107/219 94/128/220
f 94/128/220 73/107/219 74/108/221 95/129/222
f 95/129/222 74/108/221 75/109/223 96/130/224
f 96/130/224 75/109/223 76/110/225 97/131/226
f 97/131/226 76/110/225 77/111/227 98/132/228
f 98/132/228 77/111/227 78/112/229 99/133/230
f 99/133/230 78/112/229 79/113/231 100/134/232
