# This file uses centimeters as units for non-parametric coordinates.

mtllib Key.mtl
g default
v -0.500000 -1.500000 0.500000
v 0.500000 -1.500000 0.500000
v -0.500000 -0.500000 0.500000
v 0.500000 -0.500000 0.500000
v -0.500000 0.500000 0.500000
v 0.500000 0.500000 0.500000
v -0.500000 1.500000 0.500000
v 0.500000 1.500000 0.500000
v -0.500000 1.500000 -0.500000
v 0.500000 1.500000 -0.500000
v -0.500000 0.500000 -0.500000
v 0.500000 0.500000 -0.500000
v -0.500000 -0.500000 -0.500000
v 0.500000 -0.500000 -0.500000
v -0.500000 -1.500000 -0.500000
v 0.500000 -1.500000 -0.500000
v 1.500000 0.500000 -0.500000
v 2.500000 0.500000 -0.500000
v 1.500000 0.500000 0.500000
v 2.500000 0.500000 0.500000
v 1.500000 1.500000 -0.500000
v 2.500000 1.500000 -0.500000
v 1.500000 1.500000 0.500000
v 2.500000 1.500000 0.500000
v 1.500000 -1.500000 -0.500000
v 2.500000 -1.500000 -0.500000
v 1.500000 -1.500000 0.500000
v 2.500000 -1.500000 0.500000
v 1.500000 -0.500000 -0.500000
v 2.500000 -0.500000 -0.500000
v 1.500000 -0.500000 0.500000
v 2.500000 -0.500000 0.500000
v 1.500000 0.500000 -0.500000
v 1.500000 0.500000 0.500000
v 2.500000 0.500000 0.500000
v 2.500000 0.500000 -0.500000
v 3.500000 -0.500000 -0.500000
v 4.500000 -0.500000 -0.500000
v 5.500000 -0.500000 -0.500000
v 6.500000 -0.500000 -0.500000
v 7.500000 -0.500000 -0.500000
v 8.500000 -0.500000 -0.500000
v 3.500000 -0.500000 0.500000
v 4.500000 -0.500000 0.500000
v 5.500000 -0.500000 0.500000
v 6.500000 -0.500000 0.500000
v 7.500000 -0.500000 0.500000
v 8.500000 -0.500000 0.500000
v 3.500000 0.500000 -0.500000
v 4.500000 0.500000 -0.500000
v 5.500000 0.500000 -0.500000
v 6.500000 0.500000 -0.500000
v 7.500000 0.500000 -0.500000
v 8.500000 0.500000 -0.500000
v 3.500000 0.500000 0.500000
v 4.500000 0.500000 0.500000
v 5.500000 0.500000 0.500000
v 6.500000 0.500000 0.500000
v 7.500000 0.500000 0.500000
v 8.500000 0.500000 0.500000
v 6.500000 -1.500000 -0.500000
v 6.500000 -1.500000 0.500000
v 7.500000 -1.500000 -0.500000
v 7.500000 -1.500000 0.500000
v 4.500000 -1.500000 -0.500000
v 4.500000 -1.500000 0.500000
v 5.500000 -1.500000 -0.500000
v 5.500000 -1.500000 0.500000
vt 0.375000 0.000000
vt 0.625000 0.000000
vt 0.375000 0.083333
vt 0.625000 0.083333
vt 0.375000 0.166667
vt 0.625000 0.166667
vt 0.375000 0.250000
vt 0.625000 0.250000
vt 0.375000 0.500000
vt 0.625000 0.500000
vt 0.375000 0.583333
vt 0.625000 0.583333
vt 0.375000 0.666667
vt 0.625000 0.666667
vt 0.375000 0.750000
vt 0.625000 0.750000
vt 0.375000 1.000000
vt 0.625000 1.000000
vt 0.875000 0.000000
vt 0.875000 0.083333
vt 0.875000 0.166667
vt 0.875000 0.250000
vt 0.125000 0.000000
vt 0.125000 0.083333
vt 0.125000 0.166667
vt 0.125000 0.250000
vt 0.625000 0.166667
vt 0.625000 0.166667
vt 0.875000 0.166667
vt 0.875000 0.166667
vt 0.875000 0.250000
vt 0.875000 0.250000
vt 0.625000 0.250000
vt 0.625000 0.250000
vt 0.625000 0.000000
vt 0.625000 0.000000
vt 0.875000 0.000000
vt 0.875000 0.000000
vt 0.875000 0.083333
vt 0.875000 0.083333
vt 0.625000 0.083333
vt 0.625000 0.083333
vt 0.875000 0.083333
vt 0.625000 0.083333
vt 0.625000 0.083333
vt 0.875000 0.083333
vt 0.625000 0.083333
vt 0.625000 0.083333
vt 0.625000 0.083333
vt 0.625000 0.083333
vt 0.625000 0.083333
vt 0.625000 0.083333
vt 0.875000 0.083333
vt 0.875000 0.083333
vt 0.875000 0.083333
vt 0.875000 0.083333
vt 0.875000 0.083333
vt 0.875000 0.083333
vt 0.875000 0.083333
vt 0.875000 0.083333
vt 0.875000 0.083333
vt 0.875000 0.083333
vt 0.875000 0.083333
vt 0.875000 0.083333
vt 0.625000 0.083333
vt 0.625000 0.083333
vt 0.625000 0.083333
vt 0.625000 0.083333
vt 0.625000 0.083333
vt 0.625000 0.083333
vt 0.625000 0.083333
vt 0.875000 0.083333
vt 0.875000 0.083333
vt 0.625000 0.083333
vt 0.625000 0.083333
vt 0.875000 0.083333
vt 0.875000 0.083333
vt 0.625000 0.083333
vn 0.000000 0.000000 1.000000
vn 0.000000 0.000000 1.000000
vn 0.000000 0.000000 1.000000
vn 0.000000 0.000000 1.000000
vn 0.000000 0.000000 1.000000
vn 0.000000 0.000000 1.000000
vn 0.000000 0.000000 1.000000
vn 0.000000 0.000000 1.000000
vn 0.000000 1.000000 0.000000
vn 0.000000 1.000000 0.000000
vn 0.000000 1.000000 0.000000
vn 0.000000 1.000000 0.000000
vn 0.000000 0.000000 -1.000000
vn 0.000000 0.000000 -1.000000
vn 0.000000 0.000000 -1.000000
vn 0.000000 0.000000 -1.000000
vn 0.000000 0.000000 -1.000000
vn 0.000000 0.000000 -1.000000
vn 0.000000 0.000000 -1.000000
vn 0.000000 0.000000 -1.000000
vn 0.000000 -1.000000 0.000000
vn 0.000000 -1.000000 0.000000
vn 0.000000 -1.000000 0.000000
vn 0.000000 -1.000000 0.000000
vn 1.000000 0.000000 0.000000
vn 1.000000 0.000000 0.000000
vn 1.000000 0.000000 0.000000
vn 1.000000 0.000000 0.000000
vn 1.000000 0.000000 -0.000000
vn 1.000000 0.000000 -0.000000
vn 1.000000 0.000000 -0.000000
vn 1.000000 0.000000 -0.000000
vn 1.000000 0.000000 0.000000
vn 1.000000 0.000000 0.000000
vn 1.000000 0.000000 0.000000
vn 1.000000 0.000000 0.000000
vn -1.000000 0.000000 0.000000
vn -1.000000 0.000000 0.000000
vn -1.000000 0.000000 0.000000
vn -1.000000 0.000000 0.000000
vn -1.000000 0.000000 0.000000
vn -1.000000 0.000000 0.000000
vn -1.000000 0.000000 0.000000
vn -1.000000 0.000000 0.000000
vn 0.000000 -1.000000 0.000000
vn 0.000000 -1.000000 0.000000
vn 0.000000 -1.000000 0.000000
vn 0.000000 -1.000000 0.000000
vn 0.000000 0.000000 -1.000000
vn 0.000000 0.000000 -1.000000
vn 0.000000 0.000000 -1.000000
vn 0.000000 0.000000 -1.000000
vn 0.000000 1.000000 0.000000
vn 0.000000 1.000000 0.000000
vn 0.000000 1.000000 0.000000
vn 0.000000 1.000000 0.000000
vn 0.000000 0.000000 1.000000
vn 0.000000 0.000000 1.000000
vn 0.000000 0.000000 1.000000
vn 0.000000 0.000000 1.000000
vn 0.000000 -1.000000 0.000000
vn 0.000000 -1.000000 0.000000
vn 0.000000 -1.000000 0.000000
vn 0.000000 -1.000000 0.000000
vn 0.000000 -0.000000 -1.000000
vn 0.000000 0.000000 -1.000000
vn 0.000000 -0.000000 -1.000000
vn 0.000000 0.000000 -1.000000
vn 0.000000 1.000000 -0.000000
vn 0.000000 1.000000 -0.000000
vn 0.000000 1.000000 -0.000000
vn 0.000000 1.000000 -0.000000
vn 0.000000 0.000000 1.000000
vn 0.000000 0.000000 1.000000
vn 0.000000 0.000000 1.000000
vn 0.000000 0.000000 1.000000
vn -1.000000 0.000000 0.000000
vn -1.000000 0.000000 0.000000
vn -1.000000 0.000000 0.000000
vn -1.000000 0.000000 0.000000
vn 0.000000 0.000000 1.000000
vn 0.000000 0.000000 1.000000
vn 1.000000 -0.000000 0.000000
vn 1.000000 -0.000000 0.000000
vn 1.000000 -0.000000 0.000000
vn 1.000000 -0.000000 0.000000
vn 0.000000 -0.000000 -1.000000
vn 0.000000 -0.000000 -1.000000
vn -0.000000 -1.000000 0.000000
vn -0.000000 -1.000000 0.000000
vn -0.000000 -1.000000 0.000000
vn -0.000000 -1.000000 0.000000
vn -0.000000 -1.000000 0.000000
vn -0.000000 -1.000000 0.000000
vn -0.000000 -1.000000 0.000000
vn -0.000000 -1.000000 0.000000
vn -0.000000 -1.000000 0.000000
vn -0.000000 -1.000000 0.000000
vn -0.000000 -1.000000 0.000000
vn -0.000000 -1.000000 0.000000
vn -0.000000 -1.000000 0.000000
vn -0.000000 -1.000000 0.000000
vn 0.000000 -1.000000 0.000000
vn 0.000000 -1.000000 0.000000
vn 0.000000 -1.000000 0.000000
vn 0.000000 -1.000000 0.000000
vn -0.000000 -1.000000 0.000000
vn -0.000000 -1.000000 0.000000
vn -0.000000 -1.000000 0.000000
vn -0.000000 -1.000000 0.000000
vn -0.000000 -0.000000 -1.000000
vn -0.000000 -0.000000 -1.000000
vn 0.000000 -0.000000 -1.000000
vn -0.000000 -0.000000 -1.000000
vn 0.000000 -0.000000 -1.000000
vn 0.000000 -0.000000 -1.000000
vn -0.000000 -0.000000 -1.000000
vn -0.000000 -0.000000 -1.000000
vn -0.000000 -0.000000 -1.000000
vn -0.000000 -0.000000 -1.000000
vn 0.000000 -0.000000 -1.000000
vn 0.000000 -0.000000 -1.000000
vn 0.000000 1.000000 0.000000
vn 0.000000 1.000000 0.000000
vn 0.000000 1.000000 0.000000
vn 0.000000 1.000000 0.000000
vn 0.000000 1.000000 -0.000000
vn 0.000000 1.000000 -0.000000
vn 0.000000 1.000000 -0.000000
vn 0.000000 1.000000 -0.000000
vn 0.000000 1.000000 0.000000
vn 0.000000 1.000000 0.000000
vn 0.000000 1.000000 -0.000000
vn 0.000000 1.000000 -0.000000
vn 0.000000 1.000000 -0.000000
vn 0.000000 1.000000 -0.000000
vn 0.000000 0.000000 1.000000
vn 0.000000 0.000000 1.000000
vn 0.000000 0.000000 1.000000
vn 0.000000 0.000000 1.000000
vn 0.000000 0.000000 1.000000
vn 0.000000 0.000000 1.000000
vn -0.000000 0.000000 1.000000
vn -0.000000 0.000000 1.000000
vn -0.000000 0.000000 1.000000
vn -0.000000 0.000000 1.000000
vn -0.000000 0.000000 1.000000
vn -0.000000 0.000000 1.000000
vn -1.000000 -0.000000 0.000000
vn -1.000000 -0.000000 0.000000
vn -1.000000 -0.000000 0.000000
vn -1.000000 -0.000000 0.000000
vn 0.000000 -0.000000 -1.000000
vn 0.000000 -0.000000 -1.000000
vn 1.000000 -0.000000 0.000000
vn 1.000000 -0.000000 0.000000
vn 1.000000 -0.000000 0.000000
vn 1.000000 -0.000000 0.000000
vn 0.000000 0.000000 1.000000
vn 0.000000 0.000000 1.000000
vn -1.000000 0.000000 0.000000
vn -1.000000 0.000000 0.000000
vn -1.000000 0.000000 0.000000
vn -1.000000 0.000000 0.000000
vn -0.000000 -0.000000 -1.000000
vn -0.000000 -0.000000 -1.000000
vn 1.000000 0.000000 0.000000
vn 1.000000 0.000000 0.000000
vn 1.000000 0.000000 0.000000
vn 1.000000 0.000000 0.000000
vn 0.000000 0.000000 1.000000
vn 0.000000 0.000000 1.000000
s 1
g pCube1
usemtl initialShadingGroup
f 1/1/1 2/2/2 4/4/3 3/3/4
f 3/3/4 4/4/3 6/6/5 5/5/6
f 5/5/6 6/6/5 8/8/7 7/7/8
s 2
f 7/7/9 8/8/10 10/10/11 9/9/12
s 3
f 9/9/13 10/10/14 12/12/15 11/11/16
f 11/11/16 12/12/15 14/14/17 13/13/18
f 13/13/18 14/14/17 16/16/19 15/15/20
s 4
f 15/15/21 16/16/22 2/18/23 1/17/24
s off
f 28/36/25 26/38/26 30/40/27 32/42/28
f 4/4/29 14/20/30 12/21/31 6/6/32
f 20/28/33 18/30/34 22/32/35 24/34/36
s 5
f 15/23/37 1/1/38 3/3/39 13/24/40
f 13/24/40 3/3/39 5/5/41 11/25/42
f 11/25/42 5/5/41 7/7/43 9/26/44
s off
f 6/6/45 12/21/46 17/29/47 19/27/48
s 3
f 12/21/15 10/22/14 21/31/49 17/29/50
f 17/29/50 21/31/49 22/32/51 18/30/52
s 2
f 10/22/11 8/8/10 23/33/53 21/31/54
f 21/31/54 23/33/53 24/34/55 22/32/56
s 1
f 8/8/7 6/6/5 19/27/57 23/33/58
f 23/33/58 19/27/57 20/28/59 24/34/60
s 4
f 2/2/23 16/19/22 25/37/61 27/35/62
f 27/35/62 25/37/61 26/38/63 28/36/64
s 3
f 16/19/19 14/20/17 29/39/65 25/37/66
f 25/37/66 29/39/65 30/40/67 26/38/68
s off
f 14/20/69 4/4/70 31/41/71 29/39/72
s 1
f 4/4/3 2/2/2 27/35/73 31/41/74
f 31/41/74 27/35/73 28/36/75 32/42/76
s off
f 29/39/77 31/41/78 34/44/79 33/43/80
s 1
f 31/41/74 32/42/76 35/45/81 34/44/82
s off
f 48/52/83 42/58/84 54/64/85 60/70/86
s 3
f 30/40/67 29/39/65 33/43/87 36/46/88
s 6
f 32/42/89 30/40/90 37/53/91 43/47/92
f 43/47/92 37/53/91 38/54/93 44/48/94
s off
f 66/75/95 65/76/96 67/77/97 68/78/98
f 45/49/99 39/55/100 40/56/101 46/50/102
f 62/71/103 61/72/104 63/73/105 64/74/106
f 47/51/107 41/57/108 42/58/109 48/52/110
s 3
f 30/40/67 36/46/88 49/59/111 37/53/112
f 37/53/112 49/59/111 50/60/113 38/54/114
f 38/54/114 50/60/113 51/61/115 39/55/116
f 39/55/116 51/61/115 52/62/117 40/56/118
f 40/56/118 52/62/117 53/63/119 41/57/120
f 41/57/120 53/63/119 54/64/121 42/58/122
s 7
f 36/46/123 35/45/124 55/65/125 49/59/126
f 49/59/126 55/65/125 56/66/127 50/60/128
f 50/60/128 56/66/127 57/67/129 51/61/130
f 51/61/130 57/67/129 58/68/131 52/62/132
f 52/62/132 58/68/131 59/69/133 53/63/134
f 53/63/134 59/69/133 60/70/135 54/64/136
s 1
f 35/45/81 32/42/76 43/47/137 55/65/138
f 55/65/138 43/47/137 44/48/139 56/66/140
f 56/66/140 44/48/139 45/49/141 57/67/142
f 57/67/142 45/49/141 46/50/143 58/68/144
f 58/68/144 46/50/143 47/51/145 59/69/146
f 59/69/146 47/51/145 48/52/147 60/70/148
s off
f 46/50/149 40/56/150 61/72/151 62/71/152
s 3
f 40/56/118 41/57/120 63/73/153 61/72/154
s off
f 41/57/155 47/51/156 64/74/157 63/73/158
s 1
f 47/51/145 46/50/143 62/71/159 64/74/160
s off
f 44/48/161 38/54/162 65/76/163 66/75/164
s 3
f 38/54/114 39/55/116 67/77/165 65/76/166
s off
f 39/55/167 45/49/168 68/78/169 67/77/170
s 1
f 45/49/141 44/48/139 66/75/171 68/78/172
