# This file uses centimeters as units for non-parametric coordinates.

mtllib Tree.mtl
g default
v 2.853171 8.605948 -0.927052
v 2.427052 8.605949 -1.763357
v 1.763356 8.605954 -2.427053
v 0.927051 8.605951 -2.853172
v -0.000000 8.605955 -3.000002
v -0.927052 8.605951 -2.853171
v -1.763357 8.605954 -2.427052
v -2.427052 8.605948 -1.763357
v -2.853171 8.605947 -0.927052
v -3.000001 8.605951 -0.000000
v -2.853171 8.605955 0.927051
v -2.427052 8.605955 1.763356
v -1.763356 8.605951 2.427051
v -0.927052 8.605953 2.853169
v -0.000000 8.605950 3.000000
v 0.927051 8.605954 2.853169
v 1.763355 8.605951 2.427051
v 2.427051 8.605956 1.763355
v 2.853169 8.605956 0.927051
v 3.000000 8.605952 -0.000000
v -0.000000 14.605952 -0.000000
vt 0.737764 0.172746
vt 0.702254 0.103054
vt 0.646946 0.047746
vt 0.577254 0.012236
vt 0.500000 -0.000000
vt 0.422746 0.012236
vt 0.353054 0.047746
vt 0.297746 0.103054
vt 0.262236 0.172746
vt 0.250000 0.250000
vt 0.262236 0.327254
vt 0.297746 0.396946
vt 0.353054 0.452254
vt 0.422746 0.487764
vt 0.500000 0.500000
vt 0.577254 0.487764
vt 0.646946 0.452254
vt 0.702254 0.396946
vt 0.737764 0.327254
vt 0.750000 0.250000
vt 0.250000 0.500000
vt 0.275000 0.500000
vt 0.300000 0.500000
vt 0.325000 0.500000
vt 0.350000 0.500000
vt 0.375000 0.500000
vt 0.400000 0.500000
vt 0.425000 0.500000
vt 0.450000 0.500000
vt 0.475000 0.500000
vt 0.500000 0.500000
vt 0.525000 0.500000
vt 0.550000 0.500000
vt 0.575000 0.500000
vt 0.600000 0.500000
vt 0.625000 0.500000
vt 0.650000 0.500000
vt 0.675000 0.500000
vt 0.700000 0.500000
vt 0.725000 0.500000
vt 0.750000 0.500000
vt 0.500000 1.000000
vn 0.000000 -1.000000 0.000000
vn 0.000000 -1.000000 0.000000
vn 0.000000 -1.000000 0.000000
vn 0.000000 -1.000000 0.000000
vn 0.000000 -1.000000 0.000000
vn 0.000000 -1.000000 0.000000
vn 0.000000 -1.000000 0.000000
vn 0.000000 -1.000000 0.000000
vn 0.000000 -1.000000 0.000000
vn 0.000000 -1.000000 0.000000
vn 0.000000 -1.000000 0.000000
vn 0.000000 -1.000000 0.000000
vn 0.000000 -1.000000 0.000000
vn 0.000000 -1.000000 0.000000
vn 0.000000 -1.000000 0.000000
vn 0.000000 -1.000000 0.000000
vn 0.000000 -1.000000 0.000000
vn 0.000000 -1.000000 0.000000
vn 0.000000 -1.000000 0.000000
vn 0.000000 -1.000000 0.000000
vn 0.850651 0.447214 -0.276393
vn 0.723608 0.447214 -0.525730
vn -0.000001 1.000000 -0.000001
vn 0.525731 0.447214 -0.723606
vn 0.276393 0.447214 -0.850651
vn -0.000000 0.447214 -0.894427
vn -0.276394 0.447214 -0.850651
vn -0.525732 0.447214 -0.723606
vn -0.723608 0.447213 -0.525730
vn -0.850651 0.447213 -0.276394
vn -0.894427 0.447214 -0.000002
vn -0.850651 0.447214 0.276392
vn -0.723606 0.447214 0.525732
vn -0.525731 0.447214 0.723607
vn -0.276393 0.447214 0.850651
vn -0.000000 0.447214 0.894427
vn 0.276393 0.447214 0.850651
vn 0.525730 0.447214 0.723607
vn 0.723606 0.447214 0.525732
vn 0.850651 0.447214 0.276392
vn 0.894427 0.447214 -0.000001
s off
g pCone3 Tree
usemtl initialShadingGroup
f 1/1/1 20/20/2 19/19/3 18/18/4 17/17/5 16/16/6 15/15/7 14/14/8 13/13/9 12/12/10 11/11/11 10/10/12 9/9/13 8/8/14 7/7/15 6/6/16 5/5/17 4/4/18 3/3/19 2/2/20
s 1
f 1/21/21 2/22/22 21/42/23
f 2/22/22 3/23/24 21/42/23
f 3/23/24 4/24/25 21/42/23
f 4/24/25 5/25/26 21/42/23
f 5/25/26 6/26/27 21/42/23
f 6/26/27 7/27/28 21/42/23
f 7/27/28 8/28/29 21/42/23
f 8/28/29 9/29/30 21/42/23
f 9/29/30 10/30/31 21/42/23
f 10/30/31 11/31/32 21/42/23
f 11/31/32 12/32/33 21/42/23
f 12/32/33 13/33/34 21/42/23
f 13/33/34 14/34/35 21/42/23
f 14/34/35 15/35/36 21/42/23
f 15/35/36 16/36/37 21/42/23
f 16/36/37 17/37/38 21/42/23
f 17/37/38 18/38/39 21/42/23
f 18/38/39 19/39/40 21/42/23
f 19/39/40 20/40/41 21/42/23
f 20/40/41 1/41/21 21/42/23
g default
v 4.279757 6.099963 -1.390578
v 3.640579 6.099964 -2.645035
v 2.645035 6.099969 -3.640579
v 1.390577 6.099966 -4.279757
v -0.000000 6.099970 -4.500002
v -1.390577 6.099966 -4.279757
v -2.645035 6.099969 -3.640578
v -3.640578 6.099963 -2.645035
v -4.279756 6.099962 -1.390577
v -4.500001 6.099966 -0.000000
v -4.279756 6.099970 1.390577
v -3.640577 6.099970 2.645034
v -2.645034 6.099966 3.640577
v -1.390577 6.099968 4.279755
v -0.000000 6.099965 4.500000
v 1.390576 6.099969 4.279754
v 2.645033 6.099966 3.640577
v 3.640576 6.099971 2.645034
v 4.279754 6.099971 1.390576
v 4.500000 6.099967 -0.000000
v -0.000000 12.099967 -0.000000
vt 0.737764 0.172746
vt 0.702254 0.103054
vt 0.646946 0.047746
vt 0.577254 0.012236
vt 0.500000 -0.000000
vt 0.422746 0.012236
vt 0.353054 0.047746
vt 0.297746 0.103054
vt 0.262236 0.172746
vt 0.250000 0.250000
vt 0.262236 0.327254
vt 0.297746 0.396946
vt 0.353054 0.452254
vt 0.422746 0.487764
vt 0.500000 0.500000
vt 0.577254 0.487764
vt 0.646946 0.452254
vt 0.702254 0.396946
vt 0.737764 0.327254
vt 0.750000 0.250000
vt 0.250000 0.500000
vt 0.275000 0.500000
vt 0.300000 0.500000
vt 0.325000 0.500000
vt 0.350000 0.500000
vt 0.375000 0.500000
vt 0.400000 0.500000
vt 0.425000 0.500000
vt 0.450000 0.500000
vt 0.475000 0.500000
vt 0.500000 0.500000
vt 0.525000 0.500000
vt 0.550000 0.500000
vt 0.575000 0.500000
vt 0.600000 0.500000
vt 0.625000 0.500000
vt 0.650000 0.500000
vt 0.675000 0.500000
vt 0.700000 0.500000
vt 0.725000 0.500000
vt 0.750000 0.500000
vt 0.500000 1.000000
vn 0.000000 -1.000000 0.000000
vn 0.000000 -1.000000 0.000000
vn 0.000000 -1.000000 0.000000
vn 0.000000 -1.000000 0.000000
vn 0.000000 -1.000000 0.000000
vn 0.000000 -1.000000 0.000000
vn 0.000000 -1.000000 0.000000
vn 0.000000 -1.000000 0.000000
vn 0.000000 -1.000000 0.000000
vn 0.000000 -1.000000 0.000000
vn 0.000000 -1.000000 0.000000
vn 0.000000 -1.000000 0.000000
vn 0.000000 -1.000000 0.000000
vn 0.000000 -1.000000 0.000000
vn 0.000000 -1.000000 0.000000
vn 0.000000 -1.000000 0.000000
vn 0.000000 -1.000000 0.000000
vn 0.000000 -1.000000 0.000000
vn 0.000000 -1.000000 0.000000
vn 0.000000 -1.000000 0.000000
vn 0.760845 0.600000 -0.247214
vn 0.647214 0.600000 -0.470227
vn -0.000000 1.000000 -0.000001
vn 0.470228 0.600000 -0.647213
vn 0.247214 0.600000 -0.760845
vn -0.000000 0.600001 -0.800000
vn -0.247214 0.600000 -0.760845
vn -0.470229 0.600000 -0.647213
vn -0.647215 0.600000 -0.470227
vn -0.760845 0.600000 -0.247214
vn -0.800000 0.600000 -0.000002
vn -0.760845 0.600000 0.247212
vn -0.647213 0.600000 0.470229
vn -0.470228 0.600000 0.647214
vn -0.247213 0.600000 0.760845
vn -0.000000 0.600000 0.800000
vn 0.247213 0.600000 0.760845
vn 0.470228 0.600000 0.647214
vn 0.647213 0.600000 0.470229
vn 0.760845 0.600000 0.247212
vn 0.800000 0.600000 -0.000001
s off
g Tree pCone2
usemtl initialShadingGroup
f 22/43/42 41/62/43 40/61/44 39/60/45 38/59/46 37/58/47 36/57/48 35/56/49 34/55/50 33/54/51 32/53/52 31/52/53 30/51/54 29/50/55 28/49/56 27/48/57 26/47/58 25/46/59 24/45/60 23/44/61
s 1
f 22/63/62 23/64/63 42/84/64
f 23/64/63 24/65/65 42/84/64
f 24/65/65 25/66/66 42/84/64
f 25/66/66 26/67/67 42/84/64
f 26/67/67 27/68/68 42/84/64
f 27/68/68 28/69/69 42/84/64
f 28/69/69 29/70/70 42/84/64
f 29/70/70 30/71/71 42/84/64
f 30/71/71 31/72/72 42/84/64
f 31/72/72 32/73/73 42/84/64
f 32/73/73 33/74/74 42/84/64
f 33/74/74 34/75/75 42/84/64
f 34/75/75 35/76/76 42/84/64
f 35/76/76 36/77/77 42/84/64
f 36/77/77 37/78/78 42/84/64
f 37/78/78 38/79/79 42/84/64
f 38/79/79 39/80/80 42/84/64
f 39/80/80 40/81/81 42/84/64
f 40/81/81 41/82/82 42/84/64
f 41/82/82 22/83/62 42/84/64
g default
v 5.706343 2.999997 -1.854103
v 4.854105 2.999999 -3.526714
v 3.526714 3.000003 -4.854105
v 1.854103 3.000001 -5.706342
v 0.000000 3.000005 -6.000003
v -1.854103 3.000000 -5.706342
v -3.526713 3.000003 -4.854104
v -4.854103 2.999997 -3.526712
v -5.706341 2.999997 -1.854102
v -6.000001 3.000000 0.000000
v -5.706341 3.000005 1.854102
v -4.854103 3.000005 3.526712
v -3.526712 3.000000 4.854103
v -1.854102 3.000002 5.706340
v -0.000000 3.000000 6.000001
v 1.854102 3.000003 5.706340
v 3.526711 3.000001 4.854102
v 4.854102 3.000006 3.526712
v 5.706339 3.000005 1.854102
v 6.000000 3.000002 0.000000
v 0.000000 9.000002 0.000000
vt 0.737764 0.172746
vt 0.702254 0.103054
vt 0.646946 0.047746
vt 0.577254 0.012236
vt 0.500000 -0.000000
vt 0.422746 0.012236
vt 0.353054 0.047746
vt 0.297746 0.103054
vt 0.262236 0.172746
vt 0.250000 0.250000
vt 0.262236 0.327254
vt 0.297746 0.396946
vt 0.353054 0.452254
vt 0.422746 0.487764
vt 0.500000 0.500000
vt 0.577254 0.487764
vt 0.646946 0.452254
vt 0.702254 0.396946
vt 0.737764 0.327254
vt 0.750000 0.250000
vt 0.250000 0.500000
vt 0.275000 0.500000
vt 0.300000 0.500000
vt 0.325000 0.500000
vt 0.350000 0.500000
vt 0.375000 0.500000
vt 0.400000 0.500000
vt 0.425000 0.500000
vt 0.450000 0.500000
vt 0.475000 0.500000
vt 0.500000 0.500000
vt 0.525000 0.500000
vt 0.550000 0.500000
vt 0.575000 0.500000
vt 0.600000 0.500000
vt 0.625000 0.500000
vt 0.650000 0.500000
vt 0.675000 0.500000
vt 0.700000 0.500000
vt 0.725000 0.500000
vt 0.750000 0.500000
vt 0.500000 1.000000
vn 0.000000 -1.000000 0.000000
vn 0.000000 -1.000000 0.000000
vn 0.000000 -1.000000 0.000000
vn 0.000000 -1.000000 0.000000
vn 0.000000 -1.000000 0.000000
vn 0.000000 -1.000000 0.000000
vn 0.000000 -1.000000 0.000000
vn 0.000000 -1.000000 0.000000
vn 0.000000 -1.000000 0.000000
vn 0.000000 -1.000000 0.000000
vn 0.000000 -1.000000 0.000000
vn 0.000000 -1.000000 0.000000
vn 0.000000 -1.000000 0.000000
vn 0.000000 -1.000000 0.000000
vn 0.000000 -1.000000 0.000000
vn 0.000000 -1.000000 0.000000
vn 0.000000 -1.000000 0.000000
vn 0.000000 -1.000000 0.000000
vn 0.000000 -1.000000 0.000000
vn 0.000000 -1.000000 0.000000
vn 0.672499 0.707107 -0.218508
vn 0.572062 0.707107 -0.415626
vn -0.000000 1.000000 -0.000001
vn 0.415627 0.707107 -0.572061
vn 0.218508 0.707107 -0.672498
vn -0.000000 0.707107 -0.707106
vn -0.218508 0.707107 -0.672498
vn -0.415628 0.707107 -0.572061
vn -0.572062 0.707107 -0.415626
vn -0.672499 0.707107 -0.218509
vn -0.707107 0.707107 -0.000002
vn -0.672499 0.707107 0.218507
vn -0.572061 0.707107 0.415628
vn -0.415627 0.707107 0.572062
vn -0.218508 0.707107 0.672498
vn -0.000000 0.707107 0.707107
vn 0.218508 0.707107 0.672499
vn 0.415626 0.707107 0.572062
vn 0.572061 0.707107 0.415628
vn 0.672499 0.707107 0.218507
vn 0.707107 0.707107 -0.000001
s off
g Tree pCone1
usemtl initialShadingGroup
f 43/85/83 62/104/84 61/103/85 60/102/86 59/101/87 58/100/88 57/99/89 56/98/90 55/97/91 54/96/92 53/95/93 52/94/94 51/93/95 50/92/96 49/91/97 48/90/98 47/89/99 46/88/100 45/87/101 44/86/102
s 1
f 43/105/103 44/106/104 63/126/105
f 44/106/104 45/107/106 63/126/105
f 45/107/106 46/108/107 63/126/105
f 46/108/107 47/109/108 63/126/105
f 47/109/108 48/110/109 63/126/105
f 48/110/109 49/111/110 63/126/105
f 49/111/110 50/112/111 63/126/105
f 50/112/111 51/113/112 63/126/105
f 51/113/112 52/114/113 63/126/105
f 52/114/113 53/115/114 63/126/105
f 53/115/114 54/116/115 63/126/105
f 54/116/115 55/117/116 63/126/105
f 55/117/116 56/118/117 63/126/105
f 56/118/117 57/119/118 63/126/105
f 57/119/118 58/120/119 63/126/105
f 58/120/119 59/121/120 63/126/105
f 59/121/120 60/122/121 63/126/105
f 60/122/121 61/123/122 63/126/105
f 61/123/122 62/124/123 63/126/105
f 62/124/123 43/125/103 63/126/105
g default
v 0.951057 -3.000000 -0.309017
v 0.809018 -3.000000 -0.587786
v 0.587786 -3.000000 -0.809017
v 0.309017 -3.000000 -0.951057
v 0.000000 -3.000000 -1.000000
v -0.309017 -3.000000 -0.951057
v -0.587785 -3.000000 -0.809017
v -0.809017 -3.000000 -0.587785
v -0.951057 -3.000000 -0.309017
v -1.000000 -3.000000 0.000000
v -0.951057 -3.000000 0.309017
v -0.809017 -3.000000 0.587785
v -0.587785 -3.000000 0.809017
v -0.309017 -3.000000 0.951057
v -0.000000 -3.000000 1.000000
v 0.309017 -3.000000 0.951057
v 0.587785 -3.000000 0.809017
v 0.809017 -3.000000 0.587785
v 0.951057 -3.000000 0.309017
v 1.000000 -3.000000 0.000000
v 0.951057 3.000000 -0.309017
v 0.809018 3.000000 -0.587786
v 0.587786 3.000000 -0.809017
v 0.309017 3.000000 -0.951057
v 0.000000 3.000000 -1.000000
v -0.309017 3.000000 -0.951057
v -0.587785 3.000000 -0.809017
v -0.809017 3.000000 -0.587785
v -0.951057 3.000000 -0.309017
v -1.000000 3.000000 0.000000
v -0.951057 3.000000 0.309017
v -0.809017 3.000000 0.587785
v -0.587785 3.000000 0.809017
v -0.309017 3.000000 0.951057
v -0.000000 3.000000 1.000000
v 0.309017 3.000000 0.951057
v 0.587785 3.000000 0.809017
v 0.809017 3.000000 0.587785
v 0.951057 3.000000 0.309017
v 1.000000 3.000000 0.000000
v 0.000000 -3.000000 0.000000
v 0.000000 3.000000 0.000000
vt 0.648603 0.107966
vt 0.626409 0.064408
vt 0.591842 0.029841
vt 0.548284 0.007647
vt 0.500000 -0.000000
vt 0.451716 0.007647
vt 0.408159 0.029841
vt 0.373591 0.064409
vt 0.351397 0.107966
vt 0.343750 0.156250
vt 0.351397 0.204534
vt 0.373591 0.248091
vt 0.408159 0.282659
vt 0.451716 0.304853
vt 0.500000 0.312500
vt 0.548284 0.304853
vt 0.591841 0.282659
vt 0.626409 0.248091
vt 0.648603 0.204534
vt 0.656250 0.156250
vt 0.375000 0.312500
vt 0.387500 0.312500
vt 0.400000 0.312500
vt 0.412500 0.312500
vt 0.425000 0.312500
vt 0.437500 0.312500
vt 0.450000 0.312500
vt 0.462500 0.312500
vt 0.475000 0.312500
vt 0.487500 0.312500
vt 0.500000 0.312500
vt 0.512500 0.312500
vt 0.525000 0.312500
vt 0.537500 0.312500
vt 0.550000 0.312500
vt 0.562500 0.312500
vt 0.575000 0.312500
vt 0.587500 0.312500
vt 0.600000 0.312500
vt 0.612500 0.312500
vt 0.625000 0.312500
vt 0.375000 0.687500
vt 0.387500 0.687500
vt 0.400000 0.687500
vt 0.412500 0.687500
vt 0.425000 0.687500
vt 0.437500 0.687500
vt 0.450000 0.687500
vt 0.462500 0.687500
vt 0.475000 0.687500
vt 0.487500 0.687500
vt 0.500000 0.687500
vt 0.512500 0.687500
vt 0.525000 0.687500
vt 0.537500 0.687500
vt 0.550000 0.687500
vt 0.562500 0.687500
vt 0.575000 0.687500
vt 0.587500 0.687500
vt 0.600000 0.687500
vt 0.612500 0.687500
vt 0.625000 0.687500
vt 0.648603 0.795466
vt 0.626409 0.751908
vt 0.591842 0.717341
vt 0.548284 0.695147
vt 0.500000 0.687500
vt 0.451716 0.695147
vt 0.408159 0.717341
vt 0.373591 0.751909
vt 0.351397 0.795466
vt 0.343750 0.843750
vt 0.351397 0.892034
vt 0.373591 0.935591
vt 0.408159 0.970159
vt 0.451716 0.992353
vt 0.500000 1.000000
vt 0.548284 0.992353
vt 0.591841 0.970159
vt 0.626409 0.935591
vt 0.648603 0.892034
vt 0.656250 0.843750
vt 0.500000 0.156250
vt 0.500000 0.843750
vn 0.951057 0.000000 -0.309016
vn 0.809017 0.000000 -0.587785
vn 0.809017 0.000000 -0.587785
vn 0.951057 0.000000 -0.309016
vn 0.587785 0.000000 -0.809017
vn 0.587785 0.000000 -0.809017
vn 0.309017 0.000000 -0.951057
vn 0.309017 0.000000 -0.951057
vn -0.000000 0.000000 -1.000000
vn -0.000000 0.000000 -1.000000
vn -0.309017 0.000000 -0.951056
vn -0.309017 0.000000 -0.951056
vn -0.587785 0.000000 -0.809017
vn -0.587785 0.000000 -0.809017
vn -0.809017 0.000000 -0.587785
vn -0.809017 0.000000 -0.587785
vn -0.951057 0.000000 -0.309017
vn -0.951057 0.000000 -0.309017
vn -1.000000 0.000000 0.000000
vn -1.000000 0.000000 0.000000
vn -0.951057 0.000000 0.309017
vn -0.951057 0.000000 0.309017
vn -0.809017 0.000000 0.587785
vn -0.809017 0.000000 0.587785
vn -0.587785 0.000000 0.809017
vn -0.587785 0.000000 0.809017
vn -0.309017 0.000000 0.951057
vn -0.309017 0.000000 0.951057
vn 0.000000 0.000000 1.000000
vn 0.000000 0.000000 1.000000
vn 0.309017 0.000000 0.951057
vn 0.309017 0.000000 0.951057
vn 0.587785 0.000000 0.809017
vn 0.587785 0.000000 0.809017
vn 0.809017 0.000000 0.587785
vn 0.809017 0.000000 0.587785
vn 0.951057 0.000000 0.309017
vn 0.951057 0.000000 0.309017
vn 1.000000 0.000000 0.000001
vn 1.000000 0.000000 0.000001
vn 0.000000 -1.000000 0.000000
vn 0.000000 -1.000000 0.000000
vn 0.000000 -1.000000 0.000000
vn 0.000000 -1.000000 0.000000
vn 0.000000 -1.000000 0.000000
vn 0.000000 -1.000000 0.000000
vn 0.000000 -1.000000 0.000000
vn 0.000000 -1.000000 0.000000
vn 0.000000 -1.000000 0.000000
vn 0.000000 -1.000000 0.000000
vn 0.000000 -1.000000 0.000000
vn 0.000000 -1.000000 0.000000
vn 0.000000 -1.000000 0.000000
vn 0.000000 -1.000000 0.000000
vn 0.000000 -1.000000 0.000000
vn 0.000000 -1.000000 0.000000
vn 0.000000 -1.000000 0.000000
vn 0.000000 -1.000000 0.000000
vn 0.000000 -1.000000 0.000000
vn 0.000000 -1.000000 0.000000
vn 0.000000 -1.000000 0.000000
vn 0.000000 1.000000 0.000000
vn 0.000000 1.000000 0.000000
vn 0.000000 1.000000 0.000000
vn 0.000000 1.000000 0.000000
vn 0.000000 1.000000 0.000000
vn 0.000000 1.000000 0.000000
vn 0.000000 1.000000 0.000000
vn 0.000000 1.000000 0.000000
vn 0.000000 1.000000 0.000000
vn 0.000000 1.000000 0.000000
vn 0.000000 1.000000 0.000000
vn 0.000000 1.000000 0.000000
vn 0.000000 1.000000 0.000000
vn 0.000000 1.000000 0.000000
vn 0.000000 1.000000 0.000000
vn 0.000000 1.000000 0.000000
vn 0.000000 1.000000 0.000000
vn 0.000000 1.000000 0.000000
vn 0.000000 1.000000 0.000000
vn 0.000000 1.000000 0.000000
vn 0.000000 1.000000 0.000000
s 1
g Tree pCylinder1
usemtl initialShadingGroup
f 64/147/124 65/148/125 85/169/126 84/168/127
f 65/148/125 66/149/128 86/170/129 85/169/126
f 66/149/128 67/150/130 87/171/131 86/170/129
f 67/150/130 68/151/132 88/172/133 87/171/131
f 68/151/132 69/152/134 89/173/135 88/172/133
f 69/152/134 70/153/136 90/174/137 89/173/135
f 70/153/136 71/154/138 91/175/139 90/174/137
f 71/154/138 72/155/140 92/176/141 91/175/139
f 72/155/140 73/156/142 93/177/143 92/176/141
f 73/156/142 74/157/144 94/178/145 93/177/143
f 74/157/144 75/158/146 95/179/147 94/178/145
f 75/158/146 76/159/148 96/180/149 95/179/147
f 76/159/148 77/160/150 97/181/151 96/180/149
f 77/160/150 78/161/152 98/182/153 97/181/151
f 78/161/152 79/162/154 99/183/155 98/182/153
f 79/162/154 80/163/156 100/184/157 99/183/155
f 80/163/156 81/164/158 101/185/159 100/184/157
f 81/164/158 82/165/160 102/186/161 101/185/159
f 82/165/160 83/166/162 103/187/163 102/186/161
f 83/166/162 64/167/124 84/188/127 103/187/163
s 2
f 65/128/164 64/127/165 104/209/166
f 66/129/167 65/128/164 104/209/166
f 67/130/168 66/129/167 104/209/166
f 68/131/169 67/130/168 104/209/166
f 69/132/170 68/131/169 104/209/166
f 70/133/171 69/132/170 104/209/166
f 71/134/172 70/133/171 104/209/166
f 72/135/173 71/134/172 104/209/166
f 73/136/174 72/135/173 104/209/166
f 74/137/175 73/136/174 104/209/166
f 75/138/176 74/137/175 104/209/166
f 76/139/177 75/138/176 104/209/166
f 77/140/178 76/139/177 104/209/166
f 78/141/179 77/140/178 104/209/166
f 79/142/180 78/141/179 104/209/166
f 80/143/181 79/142/180 104/209/166
f 81/144/182 80/143/181 104/209/166
f 82/145/183 81/144/182 104/209/166
f 83/146/184 82/145/183 104/209/166
f 64/127/165 83/146/184 104/209/166
s 3
f 84/207/185 85/206/186 105/210/187
f 85/206/186 86/205/188 105/210/187
f 86/205/188 87/204/189 105/210/187
f 87/204/189 88/203/190 105/210/187
f 88/203/190 89/202/191 105/210/187
f 89/202/191 90/201/192 105/210/187
f 90/201/192 91/200/193 105/210/187
f 91/200/193 92/199/194 105/210/187
f 92/199/194 93/198/195 105/210/187
f 93/198/195 94/197/196 105/210/187
f 94/197/196 95/196/197 105/210/187
f 95/196/197 96/195/198 105/210/187
f 96/195/198 97/194/199 105/210/187
f 97/194/199 98/193/200 105/210/187
f 98/193/200 99/192/201 105/210/187
f 99/192/201 100/191/202 105/210/187
f 100/191/202 101/190/203 105/210/187
f 101/190/203 102/189/204 105/210/187
f 102/189/204 103/208/205 105/210/187
f 103/208/205 84/207/185 105/210/187
